STARTFONT 2.1
FONT 
SIZE 7 173 173
FONTBOUNDINGBOX 13 26 0 -4
STARTPROPERTIES 25
FAMILY_NAME "SwissKeys Raster Mono"
DEFAULT_CHAR -1
FOUNDRY "SwissMicros"
COPYRIGHT "©2021 SwissMicros GmbH"
CODEPAGE "MS Windows 1252 Western (ANSI)"
ENC_MODE 2
DESIGNER "Emy Amstein"
CREATION_YEAR 2021
WEIGHT_NAME "Normal"
SLANT "R"
SETWIDTH_NAME "Normal"
SPACING "P"
HI_VERSION 1
MAC_FONT_STYLE 1
FONTNAME_REGISTRY "-"
BREAK_CHAR 32
PIXEL_SIZE 17
POINT_SIZE 70
FONT_ASCENT 16
FONT_DESCENT 4
RESOLUTION_X 173
RESOLUTION_Y 173
AVERAGE_WIDTH 120
X_HEIGHT 12
CAP_HEIGHT 18
ENDPROPERTIES
CHARS 132
STARTCHAR ch00.uni0000
ENCODING 0
SWIDTH 1781 0
DWIDTH 13 0
BBX 11 13 1 2
BITMAP
0E00
0E00
0E00
0000
0000
FFE0
FFE0
FFE0
0000
0000
0E00
0E00
0E00
ENDCHAR
STARTCHAR ch01.uni0001
ENCODING 1
SWIDTH 1781 0
DWIDTH 13 0
BBX 11 10 1 3
BITMAP
60C0
F1E0
7BC0
3F80
1F00
1F00
3F80
7BC0
F1E0
60C0
ENDCHAR
STARTCHAR ch02.uni0002
ENCODING 2
SWIDTH 1781 0
DWIDTH 13 0
BBX 11 16 1 0
BITMAP
07E0
07E0
07E0
0700
0700
0700
0700
0700
0700
6700
F700
7F00
3F00
1F00
0F00
0700
ENDCHAR
STARTCHAR ch03.uni0003
ENCODING 3
SWIDTH 1781 0
DWIDTH 13 0
BBX 9 19 2 -1
BITMAP
0780
0F80
1F80
1E00
1C00
1C00
1C00
1C00
1C00
1C00
1C00
1C00
1C00
1C00
1C00
3C00
FC00
F800
F000
ENDCHAR
STARTCHAR ch04.uni0004
ENCODING 4
SWIDTH 1781 0
DWIDTH 13 0
BBX 11 18 1 0
BITMAP
5540
AAA0
5540
AAA0
5540
AAA0
5540
AAA0
5540
AAA0
5540
AAA0
5540
AAA0
5540
AAA0
5540
AAA0
ENDCHAR
STARTCHAR ch05.uni0005
ENCODING 5
SWIDTH 1781 0
DWIDTH 13 0
BBX 11 16 1 0
BITMAP
FFE0
FFE0
FFE0
F000
7800
3C00
1E00
0F00
0F00
1E00
3C00
7800
F000
FFE0
FFE0
FFE0
ENDCHAR
STARTCHAR ch06.uni0006
ENCODING 6
SWIDTH 1781 0
DWIDTH 13 0
BBX 12 11 1 3
BITMAP
C000
F000
FC00
FF00
FFC0
FFF0
FFC0
FF00
FC00
F000
C000
ENDCHAR
STARTCHAR ch07.uni0007
ENCODING 7
SWIDTH 1781 0
DWIDTH 13 0
BBX 11 14 1 0
BITMAP
FFE0
FFE0
FFE0
39C0
39C0
39C0
39C0
71C0
71C0
71C0
71C0
E1C0
E1C0
E1C0
ENDCHAR
STARTCHAR ch08.uni0008
ENCODING 8
SWIDTH 1781 0
DWIDTH 13 0
BBX 11 18 1 0
BITMAP
0E00
0E00
0E00
0000
0000
0E00
0E00
0E00
1C00
3C00
7800
F000
E0C0
E0E0
F1E0
7FC0
7FC0
1F00
ENDCHAR
STARTCHAR ch09.uni0009
ENCODING 9
SWIDTH 1781 0
DWIDTH 13 0
BBX 11 18 1 -2
BITMAP
0020
00E0
03E0
0FE0
3F80
FC00
F000
FC00
3F80
0FE0
C3E0
F0E0
FC20
3F00
0FC0
03E0
00E0
0020
ENDCHAR
STARTCHAR ch0a.uni000A
ENCODING 10
SWIDTH 1781 0
DWIDTH 13 0
BBX 11 18 1 0
BITMAP
C000
C000
C000
C000
C000
C000
C000
F800
F800
03E0
03E0
0300
0300
03E0
03E0
0300
0300
0300
ENDCHAR
STARTCHAR ch0b.uni000B
ENCODING 11
SWIDTH 1781 0
DWIDTH 13 0
BBX 11 18 1 -2
BITMAP
8000
E000
F800
FE00
3F80
07E0
01E0
07E0
3F80
FE00
F860
E1E0
87E0
1F80
7E00
F800
E000
8000
ENDCHAR
STARTCHAR ch0c.uni000C
ENCODING 12
SWIDTH 1781 0
DWIDTH 13 0
BBX 11 15 1 0
BITMAP
01C0
0180
0380
FFE0
FFE0
FFE0
0600
0E00
0C00
FFE0
FFE0
FFE0
3800
3000
7000
ENDCHAR
STARTCHAR ch0d.uni000D
ENCODING 13
SWIDTH 1781 0
DWIDTH 13 0
BBX 11 18 1 0
BITMAP
00E0
00E0
00E0
00E0
00E0
00E0
00E0
00E0
00E0
0CE0
1CE0
38E0
7FE0
FFE0
7FC0
3800
1C00
0C00
ENDCHAR
STARTCHAR ch0e.uni000E
ENCODING 14
SWIDTH 1781 0
DWIDTH 13 0
BBX 9 17 2 0
BITMAP
0800
0800
1C00
1C00
3E00
3E00
7F00
7F00
DD80
1C00
1C00
1C00
1C00
1C00
1C00
1C00
1C00
ENDCHAR
STARTCHAR ch0f.uni000F
ENCODING 15
SWIDTH 1781 0
DWIDTH 13 0
BBX 12 9 1 3
BITMAP
1000
1C00
0F00
FFC0
FFF0
FFC0
0F00
1C00
1000
ENDCHAR
STARTCHAR ch10.uni0010
ENCODING 16
SWIDTH 1781 0
DWIDTH 13 0
BBX 12 9 0 3
BITMAP
0080
0380
0F00
3FF0
FFF0
3FF0
0F00
0380
0080
ENDCHAR
STARTCHAR ch11.uni0011
ENCODING 17
SWIDTH 1781 0
DWIDTH 13 0
BBX 11 16 1 -4
BITMAP
E0E0
E0E0
E0E0
E0E0
E0E0
E0E0
E0E0
E0E0
F1E0
FFE0
FFE0
EEE0
E000
E000
E000
E000
ENDCHAR
STARTCHAR ch12.uni0012
ENCODING 18
SWIDTH 1781 0
DWIDTH 13 0
BBX 11 18 1 0
BITMAP
03C0
0FC0
0FC0
1C00
1C00
1C00
1C00
FFC0
FFC0
FFC0
1C00
1C00
1C00
1C00
7800
FFE0
FFE0
FFE0
ENDCHAR
STARTCHAR ch13.uni0013
ENCODING 19
SWIDTH 1781 0
DWIDTH 13 0
BBX 6 6 3 12
BITMAP
7800
FC00
CC00
CC00
FC00
7800
ENDCHAR
STARTCHAR ch14.uni0014
ENCODING 20
SWIDTH 1781 0
DWIDTH 13 0
BBX 11 22 1 0
BITMAP
71C0
71C0
71C0
0000
0E00
0E00
0E00
1F00
1F00
1F00
1F00
3B80
3B80
3B80
3180
71C0
7FC0
7FC0
7FC0
E0E0
E0E0
E0E0
ENDCHAR
STARTCHAR ch15.uni0015
ENCODING 21
SWIDTH 1781 0
DWIDTH 13 0
BBX 11 22 1 0
BITMAP
3CC0
7FC0
6780
0000
E0E0
E0E0
F0E0
F0E0
F8E0
F8E0
FCE0
FCE0
EEE0
EEE0
E7E0
E7E0
E3E0
E3E0
E1E0
E1E0
E0E0
E0E0
ENDCHAR
STARTCHAR ch16.uni0016
ENCODING 22
SWIDTH 1781 0
DWIDTH 13 0
BBX 11 22 1 0
BITMAP
0400
1F00
7BC0
2080
0E00
0E00
0E00
1F00
1F00
1F00
1F00
3B80
3B80
3B80
3180
71C0
7FC0
7FC0
7FC0
E0E0
E0E0
E0E0
ENDCHAR
STARTCHAR ch17.uni0017
ENCODING 23
SWIDTH 1781 0
DWIDTH 13 0
BBX 11 16 1 0
BITMAP
0600
0600
0E00
0C00
0C00
1C00
1800
1800
3E00
3F00
3380
7180
6180
6180
FFE0
FFE0
ENDCHAR
STARTCHAR ch18.uni0018
ENCODING 24
SWIDTH 1781 0
DWIDTH 13 0
BBX 8 10 3 4
BITMAP
FF00
FF00
C000
C000
FE00
FE00
C000
C000
FF00
FF00
ENDCHAR
STARTCHAR ch19.uni0019
ENCODING 25
SWIDTH 1781 0
DWIDTH 13 0
BBX 11 18 1 0
BITMAP
1FE0
1FE0
1FE0
1E00
3E00
3E00
3600
37C0
37C0
77C0
7600
6600
7E00
7E00
FE00
E7E0
E7E0
E7E0
ENDCHAR
STARTCHAR ch1a.uni001A
ENCODING 26
SWIDTH 1781 0
DWIDTH 13 0
BBX 11 3 1 0
BITMAP
EEE0
EEE0
EEE0
ENDCHAR
STARTCHAR ch1b.uni001B
ENCODING 27
SWIDTH 1781 0
DWIDTH 13 0
BBX 12 18 0 0
BITMAP
FC00
FC00
C000
F800
F800
C000
C000
FC00
FC00
00E0
01F0
03A0
0300
0300
0300
03A0
01F0
00E0
ENDCHAR
STARTCHAR ch1c.uni001C
ENCODING 28
SWIDTH 1781 0
DWIDTH 13 0
BBX 11 22 1 0
BITMAP
71C0
71C0
71C0
0000
1F00
3F80
7FC0
71C0
F1E0
E0E0
E0E0
E0E0
E0E0
E0E0
E0E0
E0E0
E0E0
F1E0
71C0
7FC0
3F80
1F00
ENDCHAR
STARTCHAR ch1d.uni001D
ENCODING 29
SWIDTH 1781 0
DWIDTH 13 0
BBX 11 22 1 0
BITMAP
71C0
71C0
71C0
0000
E0E0
E0E0
E0E0
E0E0
E0E0
E0E0
E0E0
E0E0
E0E0
E0E0
E0E0
E0E0
E0E0
E0E0
F1E0
7FC0
7FC0
1F00
ENDCHAR
STARTCHAR ch1e.uni001E
ENCODING 30
SWIDTH 1781 0
DWIDTH 13 0
BBX 11 18 1 0
BITMAP
5540
AAA0
5540
AAA0
5540
AAA0
5540
AAA0
5540
AAA0
5540
AAA0
5540
AAA0
5540
AAA0
5540
AAA0
ENDCHAR
STARTCHAR ch1f.uni001F
ENCODING 31
SWIDTH 1781 0
DWIDTH 13 0
BBX 7 7 3 5
BITMAP
FE00
FE00
FE00
FE00
FE00
FE00
FE00
ENDCHAR
STARTCHAR ch20.uni0020
ENCODING 32
SWIDTH 1781 0
DWIDTH 13 0
BBX 0 0 0 0
BITMAP
ENDCHAR
STARTCHAR ch21.uni0021
ENCODING 33
SWIDTH 1781 0
DWIDTH 13 0
BBX 3 18 5 0
BITMAP
E000
E000
E000
E000
E000
E000
E000
E000
E000
E000
E000
E000
0000
0000
0000
E000
E000
E000
ENDCHAR
STARTCHAR ch22.uni0022
ENCODING 34
SWIDTH 1781 0
DWIDTH 13 0
BBX 9 6 2 12
BITMAP
F780
F780
F780
6300
6300
6300
ENDCHAR
STARTCHAR ch23.uni0023
ENCODING 35
SWIDTH 1781 0
DWIDTH 13 0
BBX 11 15 1 0
BITMAP
3B80
3B80
3B80
3B80
FFE0
FFE0
FFE0
3B80
FFE0
FFE0
FFE0
3B80
3B80
3B80
3B80
ENDCHAR
STARTCHAR ch24.uni0024
ENCODING 36
SWIDTH 1781 0
DWIDTH 13 0
BBX 11 23 1 -2
BITMAP
0E00
0E00
0E00
1F00
7FC0
7FC0
F1E0
E080
E000
F000
7F00
3FC0
1FC0
01E0
00E0
40E0
E1E0
FFC0
7FC0
3F00
0E00
0E00
0E00
ENDCHAR
STARTCHAR ch25.uni0025
ENCODING 37
SWIDTH 1781 0
DWIDTH 13 0
BBX 11 18 1 0
BITMAP
70C0
F8C0
D980
D980
FB00
7300
0300
0600
0600
0C00
0C00
1800
19C0
1BE0
3360
3360
63E0
61C0
ENDCHAR
STARTCHAR ch26.uni0026
ENCODING 38
SWIDTH 1781 0
DWIDTH 13 0
BBX 11 15 1 0
BITMAP
3E00
7F00
7700
6300
7700
3E00
1C00
3C00
7E00
F760
E3E0
E1C0
F3C0
7FE0
3E60
ENDCHAR
STARTCHAR ch27.uni0027
ENCODING 39
SWIDTH 1781 0
DWIDTH 13 0
BBX 4 6 4 12
BITMAP
F000
F000
F000
6000
6000
6000
ENDCHAR
STARTCHAR ch28.uni0028
ENCODING 40
SWIDTH 1781 0
DWIDTH 13 0
BBX 6 19 4 -2
BITMAP
1800
3C00
7800
7000
7000
E000
E000
E000
E000
E000
E000
E000
E000
E000
7000
7000
7800
3C00
1800
ENDCHAR
STARTCHAR ch29.uni0029
ENCODING 41
SWIDTH 1781 0
DWIDTH 13 0
BBX 6 19 3 -2
BITMAP
6000
F000
7800
3800
3800
1C00
1C00
1C00
1C00
1C00
1C00
1C00
1C00
1C00
3800
3800
7800
F000
6000
ENDCHAR
STARTCHAR ch2a.uni002A
ENCODING 42
SWIDTH 1781 0
DWIDTH 13 0
BBX 13 13 0 2
BITMAP
0700
0700
6730
F778
FFF8
3FE0
0F80
3FE0
FFF8
F778
6730
0700
0700
ENDCHAR
STARTCHAR ch2b.uni002B
ENCODING 43
SWIDTH 1781 0
DWIDTH 13 0
BBX 11 11 1 3
BITMAP
0E00
0E00
0E00
0E00
FFE0
FFE0
FFE0
0E00
0E00
0E00
0E00
ENDCHAR
STARTCHAR ch2c.uni002C
ENCODING 44
SWIDTH 1781 0
DWIDTH 13 0
BBX 4 8 4 -4
BITMAP
F000
F000
F000
F000
3000
7000
E000
4000
ENDCHAR
STARTCHAR ch2d.uni002D
ENCODING 45
SWIDTH 1781 0
DWIDTH 13 0
BBX 11 3 1 7
BITMAP
FFE0
FFE0
FFE0
ENDCHAR
STARTCHAR ch2e.uni002E
ENCODING 46
SWIDTH 1781 0
DWIDTH 13 0
BBX 4 4 4 0
BITMAP
F000
F000
F000
F000
ENDCHAR
STARTCHAR ch2f.uni002F
ENCODING 47
SWIDTH 1781 0
DWIDTH 13 0
BBX 8 18 2 0
BITMAP
0700
0700
0700
0E00
0E00
0E00
1C00
1C00
1C00
3800
3800
3800
7000
7000
7000
E000
E000
E000
ENDCHAR
STARTCHAR ch30.uni0030
ENCODING 48
SWIDTH 448 0
DWIDTH 13 0
BBX 11 16 1 0
BITMAP
1F00
3F80
7FC0
71C0
F3E0
E3E0
E6E0
E6E0
ECE0
ECE0
F8E0
F9E0
71C0
7FC0
3F80
1F00
ENDCHAR
STARTCHAR ch31.uni0031
ENCODING 49
SWIDTH 448 0
DWIDTH 13 0
BBX 11 16 1 0
BITMAP
0E00
0E00
1E00
7E00
7E00
6E00
0E00
0E00
0E00
0E00
0E00
0E00
0E00
FFE0
FFE0
FFE0
ENDCHAR
STARTCHAR ch32.uni0032
ENCODING 50
SWIDTH 448 0
DWIDTH 13 0
BBX 11 16 1 0
BITMAP
1F00
7FC0
7FC0
F1E0
E0E0
60E0
00E0
01C0
07C0
1F80
3E00
7800
6000
FFE0
FFE0
FFE0
ENDCHAR
STARTCHAR ch33.uni0033
ENCODING 51
SWIDTH 448 0
DWIDTH 13 0
BBX 11 16 1 0
BITMAP
1F00
7FC0
7FC0
F1E0
E0E0
60E0
0FC0
0F80
0F80
01C0
60E0
E0E0
F1E0
7FC0
7FC0
1F00
ENDCHAR
STARTCHAR ch34.uni0034
ENCODING 52
SWIDTH 448 0
DWIDTH 13 0
BBX 11 16 1 0
BITMAP
01C0
03C0
07C0
07C0
0FC0
1DC0
19C0
39C0
71C0
61C0
FFE0
FFE0
FFE0
01C0
01C0
01C0
ENDCHAR
STARTCHAR ch35.uni0035
ENCODING 53
SWIDTH 448 0
DWIDTH 13 0
BBX 12 16 0 0
BITMAP
7FE0
7FE0
7FE0
7000
7000
7780
7FE0
7FE0
38F0
0070
0070
6070
F0F0
7FE0
7FE0
1F80
ENDCHAR
STARTCHAR ch36.uni0036
ENCODING 54
SWIDTH 448 0
DWIDTH 13 0
BBX 11 16 1 0
BITMAP
0F00
3FC0
7FC0
7080
E000
E600
DF80
FFC0
F1C0
E0E0
E0E0
E0E0
71C0
7FC0
3F80
1F00
ENDCHAR
STARTCHAR ch37.uni0037
ENCODING 55
SWIDTH 448 0
DWIDTH 13 0
BBX 11 16 1 0
BITMAP
FFE0
FFE0
FFE0
E0E0
01C0
0380
0700
0700
0E00
0E00
1E00
1C00
1C00
1C00
1C00
1C00
ENDCHAR
STARTCHAR ch38.uni0038
ENCODING 56
SWIDTH 448 0
DWIDTH 13 0
BBX 11 16 1 0
BITMAP
0E00
3F80
7FC0
71C0
71C0
71C0
3F80
1F00
7FC0
F1E0
E0E0
E0E0
F1E0
FFE0
7FC0
1F00
ENDCHAR
STARTCHAR ch39.uni0039
ENCODING 57
SWIDTH 448 0
DWIDTH 13 0
BBX 11 16 1 0
BITMAP
1F00
3F80
7FC0
71C0
E0E0
E0E0
E0E0
71E0
7FE0
3F60
0CE0
00E0
21C0
7FC0
7F80
1F00
ENDCHAR
STARTCHAR ch3a.uni003A
ENCODING 58
SWIDTH 1781 0
DWIDTH 13 0
BBX 4 12 4 0
BITMAP
F000
F000
F000
F000
0000
0000
0000
0000
F000
F000
F000
F000
ENDCHAR
STARTCHAR ch3b.uni003B
ENCODING 59
SWIDTH 1781 0
DWIDTH 13 0
BBX 4 16 4 -4
BITMAP
F000
F000
F000
F000
0000
0000
0000
0000
F000
F000
F000
F000
3000
7000
E000
4000
ENDCHAR
STARTCHAR ch3c.uni003C
ENCODING 60
SWIDTH 1781 0
DWIDTH 13 0
BBX 11 13 1 1
BITMAP
0020
00E0
03E0
0FE0
3F80
FC00
F000
FC00
3F80
0FE0
03E0
00E0
0020
ENDCHAR
STARTCHAR ch3d.uni003D
ENCODING 61
SWIDTH 1781 0
DWIDTH 13 0
BBX 11 9 1 3
BITMAP
FFE0
FFE0
FFE0
0000
0000
0000
FFE0
FFE0
FFE0
ENDCHAR
STARTCHAR ch3e.uni003E
ENCODING 62
SWIDTH 1781 0
DWIDTH 13 0
BBX 11 13 1 1
BITMAP
8000
E000
F800
FE00
3F80
07E0
01E0
07E0
3F80
FE00
F800
E000
8000
ENDCHAR
STARTCHAR ch3f.uni003F
ENCODING 63
SWIDTH 1781 0
DWIDTH 13 0
BBX 11 18 1 0
BITMAP
1F00
7FC0
7FC0
F1E0
E0E0
60E0
01E0
03C0
0780
0700
0E00
0E00
0E00
0000
0000
0E00
0E00
0E00
ENDCHAR
STARTCHAR ch40.uni0040
ENCODING 64
SWIDTH 1781 0
DWIDTH 13 0
BBX 11 14 1 2
BITMAP
0F80
3FC0
70E0
6760
CFE0
DDE0
D8E0
D860
DCE0
CFE0
67A0
7000
3F80
0F80
ENDCHAR
STARTCHAR ch41.uni0041
ENCODING 65
SWIDTH 448 0
DWIDTH 13 0
BBX 11 18 1 0
BITMAP
0E00
0E00
0E00
1F00
1F00
1F00
1F00
3B80
3B80
3B80
3180
71C0
7FC0
7FC0
7FC0
E0E0
E0E0
E0E0
ENDCHAR
STARTCHAR ch42.uni0042
ENCODING 66
SWIDTH 448 0
DWIDTH 13 0
BBX 11 18 1 0
BITMAP
FE00
FF80
FF80
E1C0
E1C0
E1C0
E1C0
FF80
FF80
FF80
E1C0
E0E0
E0E0
E0E0
E1E0
FFC0
FFC0
FF00
ENDCHAR
STARTCHAR ch43.uni0043
ENCODING 67
SWIDTH 448 0
DWIDTH 13 0
BBX 11 18 1 0
BITMAP
1F00
3FC0
7FC0
71E0
F0E0
E0C0
E000
E000
E000
E000
E000
E000
E0C0
F0E0
71E0
7FC0
3FC0
1F00
ENDCHAR
STARTCHAR ch44.uni0044
ENCODING 68
SWIDTH 448 0
DWIDTH 13 0
BBX 11 18 1 0
BITMAP
FE00
FF80
FF80
E3C0
E1C0
E1C0
E1E0
E0E0
E0E0
E0E0
E0E0
E1E0
E1C0
E1C0
E3C0
FF80
FF80
FE00
ENDCHAR
STARTCHAR ch45.uni0045
ENCODING 69
SWIDTH 448 0
DWIDTH 13 0
BBX 11 18 1 0
BITMAP
FFE0
FFE0
FFE0
E000
E000
E000
E000
FFC0
FFC0
FFC0
E000
E000
E000
E000
E000
FFE0
FFE0
FFE0
ENDCHAR
STARTCHAR ch46.uni0046
ENCODING 70
SWIDTH 448 0
DWIDTH 13 0
BBX 11 18 1 0
BITMAP
FFE0
FFE0
FFE0
E000
E000
E000
E000
E000
FFC0
FFC0
FFC0
E000
E000
E000
E000
E000
E000
E000
ENDCHAR
STARTCHAR ch47.uni0047
ENCODING 71
SWIDTH 1781 0
DWIDTH 13 0
BBX 11 18 1 0
BITMAP
0F00
3FC0
3FC0
79E0
70E0
F080
E000
E000
E7E0
E7E0
E7E0
E0E0
F0E0
70E0
79E0
3FE0
3F60
0E60
ENDCHAR
STARTCHAR ch48.uni0048
ENCODING 72
SWIDTH 1781 0
DWIDTH 13 0
BBX 11 18 1 0
BITMAP
E0E0
E0E0
E0E0
E0E0
E0E0
E0E0
E0E0
FFE0
FFE0
FFE0
E0E0
E0E0
E0E0
E0E0
E0E0
E0E0
E0E0
E0E0
ENDCHAR
STARTCHAR ch49.uni0049
ENCODING 73
SWIDTH 448 0
DWIDTH 13 0
BBX 11 18 1 0
BITMAP
FFE0
FFE0
FFE0
0E00
0E00
0E00
0E00
0E00
0E00
0E00
0E00
0E00
0E00
0E00
0E00
FFE0
FFE0
FFE0
ENDCHAR
STARTCHAR ch4a.uni004A
ENCODING 74
SWIDTH 1781 0
DWIDTH 13 0
BBX 12 18 1 0
BITMAP
0FF0
0FF0
0FF0
00E0
00E0
00E0
00E0
00E0
00E0
00E0
E0E0
E0E0
E0E0
E0E0
F1E0
7FC0
7FC0
1F00
ENDCHAR
STARTCHAR ch4b.uni004B
ENCODING 75
SWIDTH 1781 0
DWIDTH 13 0
BBX 12 18 1 0
BITMAP
E1E0
E1C0
E3C0
E380
E780
E700
EF00
EE00
FE00
FF00
FF00
F780
F380
E3C0
E1C0
E1E0
E0E0
E0F0
ENDCHAR
STARTCHAR ch4c.uni004C
ENCODING 76
SWIDTH 1781 0
DWIDTH 13 0
BBX 11 18 1 0
BITMAP
E000
E000
E000
E000
E000
E000
E000
E000
E000
E000
E000
E000
E000
E000
E000
FFE0
FFE0
FFE0
ENDCHAR
STARTCHAR ch4d.uni004D
ENCODING 77
SWIDTH 448 0
DWIDTH 13 0
BBX 11 18 1 0
BITMAP
E0E0
E0E0
E0E0
F1E0
F1E0
F1E0
F1E0
FBE0
FBE0
FBE0
FFE0
FFE0
EEE0
EEE0
EEE0
E4E0
E4E0
E4E0
ENDCHAR
STARTCHAR ch4e.uni004E
ENCODING 78
SWIDTH 448 0
DWIDTH 13 0
BBX 11 18 1 0
BITMAP
E0E0
E0E0
F0E0
F0E0
F8E0
F8E0
FCE0
FCE0
EEE0
EEE0
E7E0
E7E0
E3E0
E3E0
E1E0
E1E0
E0E0
E0E0
ENDCHAR
STARTCHAR ch4f.uni004F
ENCODING 79
SWIDTH 448 0
DWIDTH 13 0
BBX 11 18 1 0
BITMAP
1F00
3F80
7FC0
71C0
F1E0
E0E0
E0E0
E0E0
E0E0
E0E0
E0E0
E0E0
E0E0
F1E0
71C0
7FC0
3F80
1F00
ENDCHAR
STARTCHAR ch50.uni0050
ENCODING 80
SWIDTH 448 0
DWIDTH 13 0
BBX 11 18 1 0
BITMAP
FF00
FFC0
FFC0
E1E0
E0E0
E0E0
E0E0
E0E0
E1E0
FFC0
FFC0
FF00
E000
E000
E000
E000
E000
E000
ENDCHAR
STARTCHAR ch51.uni0051
ENCODING 81
SWIDTH 448 0
DWIDTH 13 0
BBX 12 18 1 0
BITMAP
1F00
3F80
7FC0
71C0
F1E0
E0E0
E0E0
E0E0
E0E0
E0E0
E4E0
EEE0
E7E0
F3E0
71C0
7FE0
3FF0
1F20
ENDCHAR
STARTCHAR ch52.uni0052
ENCODING 82
SWIDTH 448 0
DWIDTH 13 0
BBX 11 18 1 0
BITMAP
FF00
FFC0
FFC0
E1E0
E0E0
E0E0
E0E0
E1C0
FFC0
FF00
FF80
E380
E3C0
E1C0
E1C0
E1E0
E0E0
E0E0
ENDCHAR
STARTCHAR ch53.uni0053
ENCODING 83
SWIDTH 1781 0
DWIDTH 13 0
BBX 12 18 0 0
BITMAP
0F80
3FE0
3FE0
78F0
7040
7000
7800
3F80
1FE0
07E0
00F0
0070
2070
E070
F8F0
7FE0
3FE0
0F80
ENDCHAR
STARTCHAR ch54.uni0054
ENCODING 84
SWIDTH 1781 0
DWIDTH 13 0
BBX 11 18 1 0
BITMAP
FFE0
FFE0
FFE0
0E00
0E00
0E00
0E00
0E00
0E00
0E00
0E00
0E00
0E00
0E00
0E00
0E00
0E00
0E00
ENDCHAR
STARTCHAR ch55.uni0055
ENCODING 85
SWIDTH 1781 0
DWIDTH 13 0
BBX 11 18 1 0
BITMAP
E0E0
E0E0
E0E0
E0E0
E0E0
E0E0
E0E0
E0E0
E0E0
E0E0
E0E0
E0E0
E0E0
E0E0
F1E0
7FC0
7FC0
1F00
ENDCHAR
STARTCHAR ch56.uni0056
ENCODING 86
SWIDTH 1781 0
DWIDTH 13 0
BBX 11 18 1 0
BITMAP
E0E0
E0E0
E0E0
71C0
71C0
71C0
71C0
3180
3B80
3B80
3B80
1F00
1F00
1F00
1F00
0E00
0E00
0E00
ENDCHAR
STARTCHAR ch57.uni0057
ENCODING 87
SWIDTH 1781 0
DWIDTH 13 0
BBX 11 18 1 0
BITMAP
EEE0
EEE0
EEE0
EEE0
EEE0
EEE0
EEE0
6EC0
6EC0
7FC0
7FC0
7BC0
7BC0
3B80
3B80
3180
3180
3180
ENDCHAR
STARTCHAR ch58.uni0058
ENCODING 88
SWIDTH 1781 0
DWIDTH 13 0
BBX 11 18 1 0
BITMAP
E0E0
E0E0
F1E0
71C0
7BC0
3B80
3F80
1F00
0E00
0E00
1F00
3F80
3B80
7BC0
71C0
F1E0
E0E0
E0E0
ENDCHAR
STARTCHAR ch59.uni0059
ENCODING 89
SWIDTH 1781 0
DWIDTH 13 0
BBX 11 18 1 0
BITMAP
F1E0
F1E0
71C0
71C0
7BC0
3B80
3B80
1B00
1F00
1F00
0E00
0E00
0E00
0E00
0E00
0E00
0E00
0E00
ENDCHAR
STARTCHAR ch5a.uni005A
ENCODING 90
SWIDTH 1781 0
DWIDTH 13 0
BBX 11 18 1 0
BITMAP
FFE0
FFE0
FFE0
01E0
01C0
03C0
0380
0780
0F00
0E00
1E00
3C00
3800
7800
7000
FFE0
FFE0
FFE0
ENDCHAR
STARTCHAR ch5b.uni005B
ENCODING 91
SWIDTH 1781 0
DWIDTH 13 0
BBX 6 22 4 -4
BITMAP
FC00
FC00
FC00
E000
E000
E000
E000
E000
E000
E000
E000
E000
E000
E000
E000
E000
E000
E000
E000
FC00
FC00
FC00
ENDCHAR
STARTCHAR ch5c.uni005C
ENCODING 92
SWIDTH 1781 0
DWIDTH 13 0
BBX 8 18 3 0
BITMAP
E000
E000
E000
7000
7000
7000
3800
3800
3800
1C00
1C00
1C00
0E00
0E00
0E00
0700
0700
0700
ENDCHAR
STARTCHAR ch5d.uni005D
ENCODING 93
SWIDTH 1781 0
DWIDTH 13 0
BBX 6 22 3 -4
BITMAP
FC00
FC00
FC00
1C00
1C00
1C00
1C00
1C00
1C00
1C00
1C00
1C00
1C00
1C00
1C00
1C00
1C00
1C00
1C00
FC00
FC00
FC00
ENDCHAR
STARTCHAR ch5e.uni005E
ENCODING 94
SWIDTH 1781 0
DWIDTH 13 0
BBX 9 17 2 -1
BITMAP
1C00
1C00
1C00
1C00
1C00
1C00
1C00
1C00
DD80
7F00
7F00
3E00
3E00
1C00
1C00
0800
0800
ENDCHAR
STARTCHAR ch5f.uni005F
ENCODING 95
SWIDTH 1781 0
DWIDTH 13 0
BBX 13 3 0 -4
BITMAP
FFF8
FFF8
FFF8
ENDCHAR
STARTCHAR ch60.uni0060
ENCODING 96
SWIDTH 1781 0
DWIDTH 13 0
BBX 4 8 5 10
BITMAP
F000
F000
F000
F000
C000
E000
7000
2000
ENDCHAR
STARTCHAR ch61.uni0061
ENCODING 97
SWIDTH 1781 0
DWIDTH 13 0
BBX 11 12 1 0
BITMAP
0F00
3FC0
7FC0
30E0
00E0
1FE0
7FE0
70E0
E1E0
FFE0
7FE0
7CE0
ENDCHAR
STARTCHAR ch62.uni0062
ENCODING 98
SWIDTH 1781 0
DWIDTH 13 0
BBX 11 16 1 0
BITMAP
E000
E000
E000
E000
EF80
FFC0
FFC0
F1E0
E0E0
E0E0
E0E0
E0E0
F1E0
FFC0
FFC0
EF80
ENDCHAR
STARTCHAR ch63.uni0063
ENCODING 99
SWIDTH 1781 0
DWIDTH 13 0
BBX 11 12 1 0
BITMAP
1F80
7FC0
7FE0
F0C0
E000
E000
E000
E000
F0C0
7FE0
7FC0
1F80
ENDCHAR
STARTCHAR ch64.uni0064
ENCODING 100
SWIDTH 1781 0
DWIDTH 13 0
BBX 11 16 1 0
BITMAP
00E0
00E0
00E0
00E0
3EE0
7FE0
7FE0
F1E0
E0E0
E0E0
E0E0
E0E0
F1E0
7FE0
7FE0
3EE0
ENDCHAR
STARTCHAR ch65.uni0065
ENCODING 101
SWIDTH 1781 0
DWIDTH 13 0
BBX 11 12 1 0
BITMAP
0E00
3F80
7FC0
71C0
E0E0
FFE0
FFE0
E000
70C0
7FE0
3FC0
0F00
ENDCHAR
STARTCHAR ch66.uni0066
ENCODING 102
SWIDTH 1781 0
DWIDTH 13 0
BBX 9 16 2 0
BITMAP
0F80
1F80
3F80
3C00
3800
3800
FF80
FF80
FF80
3800
3800
3800
3800
3800
3800
3800
ENDCHAR
STARTCHAR ch67.uni0067
ENCODING 103
SWIDTH 1781 0
DWIDTH 13 0
BBX 11 16 1 -4
BITMAP
3EE0
7FE0
7FE0
F1E0
E0E0
E0E0
E0E0
F1E0
7FE0
7FE0
3EE0
00E0
21E0
7FC0
7FC0
1F00
ENDCHAR
STARTCHAR ch68.uni0068
ENCODING 104
SWIDTH 1781 0
DWIDTH 13 0
BBX 11 16 1 0
BITMAP
E000
E000
E000
E000
EF80
FFC0
FFC0
F1E0
E0E0
E0E0
E0E0
E0E0
E0E0
E0E0
E0E0
E0E0
ENDCHAR
STARTCHAR ch69.uni0069
ENCODING 105
SWIDTH 1781 0
DWIDTH 13 0
BBX 11 18 1 0
BITMAP
0E00
0E00
0E00
0E00
0000
0000
7E00
7E00
7E00
0E00
0E00
0E00
0E00
0E00
0E00
FFE0
FFE0
FFE0
ENDCHAR
STARTCHAR ch6a.uni006A
ENCODING 106
SWIDTH 1781 0
DWIDTH 13 0
BBX 8 22 0 -4
BITMAP
0700
0700
0700
0700
0000
0000
3F00
3F00
3F00
0700
0700
0700
0700
0700
0700
0700
0700
0700
4F00
FF00
FE00
7C00
ENDCHAR
STARTCHAR ch6b.uni006B
ENCODING 107
SWIDTH 1781 0
DWIDTH 13 0
BBX 11 16 1 0
BITMAP
E000
E000
E000
E000
E1E0
E3C0
E780
EF00
FE00
FC00
FE00
F700
E780
E380
E3C0
E1E0
ENDCHAR
STARTCHAR ch6c.uni006C
ENCODING 108
SWIDTH 1781 0
DWIDTH 13 0
BBX 11 16 1 0
BITMAP
7E00
7E00
7E00
0E00
0E00
0E00
0E00
0E00
0E00
0E00
0E00
0E00
0E00
FFE0
FFE0
FFE0
ENDCHAR
STARTCHAR ch6d.uni006D
ENCODING 109
SWIDTH 1781 0
DWIDTH 13 0
BBX 11 12 1 0
BITMAP
ECC0
FFE0
FFE0
EEE0
EEE0
EEE0
EEE0
EEE0
EEE0
EEE0
EEE0
EEE0
ENDCHAR
STARTCHAR ch6e.uni006E
ENCODING 110
SWIDTH 1781 0
DWIDTH 13 0
BBX 11 12 1 0
BITMAP
E780
EFC0
FFC0
F9E0
F0E0
E0E0
E0E0
E0E0
E0E0
E0E0
E0E0
E0E0
ENDCHAR
STARTCHAR ch6f.uni006F
ENCODING 111
SWIDTH 1781 0
DWIDTH 13 0
BBX 11 12 1 0
BITMAP
1F00
7FC0
7FC0
F1E0
E0E0
E0E0
E0E0
E0E0
F1E0
7FC0
7FC0
1F00
ENDCHAR
STARTCHAR ch70.uni0070
ENCODING 112
SWIDTH 1781 0
DWIDTH 13 0
BBX 11 16 1 -4
BITMAP
EF80
FFC0
FFC0
F1E0
E0E0
E0E0
E0E0
E0E0
F1E0
FFC0
FFC0
EF80
E000
E000
E000
E000
ENDCHAR
STARTCHAR ch71.uni0071
ENCODING 113
SWIDTH 1781 0
DWIDTH 13 0
BBX 11 16 1 -4
BITMAP
3EE0
7FE0
7FE0
F1E0
E0E0
E0E0
E0E0
E0E0
F1E0
7FE0
7FE0
3EE0
00E0
00E0
00E0
00E0
ENDCHAR
STARTCHAR ch72.uni0072
ENCODING 114
SWIDTH 1781 0
DWIDTH 13 0
BBX 12 12 1 0
BITMAP
F3E0
F7F0
FFE0
3C40
3C00
3800
3800
3800
3800
FE00
FE00
FE00
ENDCHAR
STARTCHAR ch73.uni0073
ENCODING 115
SWIDTH 1781 0
DWIDTH 13 0
BBX 12 12 0 0
BITMAP
0F80
3FE0
7FF0
7020
7E00
3FC0
0FE0
00F0
60F0
FFF0
7FE0
1F80
ENDCHAR
STARTCHAR ch74.uni0074
ENCODING 116
SWIDTH 1781 0
DWIDTH 13 0
BBX 11 16 1 0
BITMAP
1C00
1C00
1C00
1C00
FFE0
FFE0
FFE0
1C00
1C00
1C00
1C00
1C00
1E00
1FE0
0FE0
07E0
ENDCHAR
STARTCHAR ch75.uni0075
ENCODING 117
SWIDTH 1781 0
DWIDTH 13 0
BBX 11 12 1 0
BITMAP
E0E0
E0E0
E0E0
E0E0
E0E0
E0E0
E0E0
E1E0
F3E0
7FE0
7EE0
3CE0
ENDCHAR
STARTCHAR ch76.uni0076
ENCODING 118
SWIDTH 1781 0
DWIDTH 13 0
BBX 11 12 1 0
BITMAP
E0E0
E0E0
71C0
71C0
71C0
3B80
3B80
1B00
1F00
1F00
0E00
0E00
ENDCHAR
STARTCHAR ch77.uni0077
ENCODING 119
SWIDTH 1781 0
DWIDTH 13 0
BBX 13 12 0 0
BITMAP
E738
6730
6730
7770
7770
3560
3DE0
3DE0
38E0
18C0
18C0
18C0
ENDCHAR
STARTCHAR ch78.uni0078
ENCODING 120
SWIDTH 772 0
DWIDTH 13 0
BBX 13 12 0 0
BITMAP
F078
78F0
38E0
3DE0
1DC0
0F80
0F80
1DC0
3DE0
38E0
78F0
F078
ENDCHAR
STARTCHAR ch79.uni0079
ENCODING 121
SWIDTH 1781 0
DWIDTH 13 0
BBX 11 16 1 -4
BITMAP
F1E0
F1E0
71C0
7BC0
7B80
3B80
3B80
1F00
1F00
1F00
0E00
0E00
1E00
7C00
7C00
7000
ENDCHAR
STARTCHAR ch7a.uni007A
ENCODING 122
SWIDTH 1781 0
DWIDTH 13 0
BBX 10 12 1 0
BITMAP
FFC0
FFC0
FFC0
03C0
0780
0F00
1E00
3C00
7800
FFC0
FFC0
FFC0
ENDCHAR
STARTCHAR ch7b.uni007B
ENCODING 123
SWIDTH 1781 0
DWIDTH 13 0
BBX 8 21 2 -3
BITMAP
0700
0F00
1F00
1C00
1C00
1C00
1C00
1C00
3C00
F800
E000
F800
3C00
1C00
1C00
1C00
1C00
1C00
1F00
0F00
0700
ENDCHAR
STARTCHAR ch7c.uni007C
ENCODING 124
SWIDTH 1781 0
DWIDTH 13 0
BBX 3 22 5 -4
BITMAP
E000
E000
E000
E000
E000
E000
E000
E000
E000
E000
E000
E000
E000
E000
E000
E000
E000
E000
E000
E000
E000
E000
ENDCHAR
STARTCHAR ch7d.uni007D
ENCODING 125
SWIDTH 1781 0
DWIDTH 13 0
BBX 8 21 3 -3
BITMAP
E000
F000
F800
3800
3800
3800
3800
3800
3C00
1F00
0700
1F00
3C00
3800
3800
3800
3800
3800
F800
F000
E000
ENDCHAR
STARTCHAR ch7e.uni007E
ENCODING 126
SWIDTH 1781 0
DWIDTH 13 0
BBX 11 5 1 6
BITMAP
3860
7C60
EEE0
C7C0
C380
ENDCHAR
STARTCHAR ch7f.uni007F
ENCODING 127
SWIDTH 1781 0
DWIDTH 13 0
BBX 9 18 2 0
BITMAP
E000
E000
E000
E000
E000
E000
E000
E000
FF80
FF80
FF80
E000
E000
E000
E000
E000
E000
E000
ENDCHAR
STARTCHAR ch80.uni0080
ENCODING 128
SWIDTH 1781 0
DWIDTH 13 0
BBX 11 12 1 0
BITMAP
FFE0
FFE0
7FC0
7FC0
3F80
3F80
1F00
1F00
0E00
0E00
0400
0400
ENDCHAR
STARTCHAR ch81.uni0081
ENCODING 129
SWIDTH 1781 0
DWIDTH 13 0
BBX 11 12 1 0
BITMAP
0400
0400
0E00
0E00
1F00
1F00
3F80
3F80
7FC0
7FC0
FFE0
FFE0
ENDCHAR
STARTCHAR NameMe.130.uni0082
ENCODING 130
SWIDTH 2600 0
DWIDTH 13 0
BBX 4 13 4 2
BITMAP
F000
F000
F000
F000
0000
0000
0000
0000
0000
F000
F000
F000
F000
ENDCHAR
STARTCHAR NameMe.131.uni0083
ENCODING 131
SWIDTH 2600 0
DWIDTH 13 0
BBX 11 12 1 0
BITMAP
F1E0
71C0
3B80
3B80
1F00
0E00
0E00
0E00
0E00
0E00
0E00
0E00
ENDCHAR
ENDFONT
